<svg width="193" height="223" viewBox="0 0 193 223" fill="none" xmlns="http://www.w3.org/2000/svg">
<path d="M161.921 11.567C162.342 11.7649 162.763 11.9628 163.196 12.1667C174.123 17.3879 185.851 25.7406 192.958 35.6967C193.05 37.0039 193.05 37.0039 192.325 38.2367C191.23 39.3867 190.153 40.4147 188.96 41.4513C188.264 42.0721 187.569 42.693 186.874 43.3141C186.517 43.63 186.16 43.9458 185.792 44.2713C184.122 45.7567 182.485 47.2762 180.844 48.7934C178.058 51.3576 175.252 53.8983 172.437 56.4307C169.336 59.236 166.263 62.0725 163.188 64.9063C160.812 62.9212 158.579 60.9326 156.458 58.6755C145.054 47.1772 128.606 41.3016 112.634 41.2529C94.4858 41.2894 78.528 47.2311 65.3881 60.0397C53.9097 72.1959 48.461 88.9884 48.5409 105.546C49.2086 123.697 54.9164 140.369 68.1766 153.17C81.7798 164.938 99.1406 170.083 116.949 169.045C130.679 167.952 143.123 162.549 153.687 153.805C154.176 153.404 154.665 153.003 155.169 152.59C157.713 150.434 159.872 148.182 161.921 145.55C164.508 146.409 165.96 147.499 167.82 149.479C169.55 151.274 171.275 153.013 173.164 154.639C175.792 156.902 178.333 159.251 180.87 161.614C182.656 163.276 184.448 164.927 186.265 166.555C186.612 166.867 186.958 167.179 187.315 167.5C188.273 168.362 189.233 169.219 190.194 170.077C191.523 171.415 192.273 172.39 192.958 174.125C192.052 175.174 191.141 176.218 190.227 177.26C189.719 177.842 189.212 178.424 188.69 179.024C187.257 180.475 187.257 180.475 185.357 181.11C185.111 180.749 184.864 180.388 184.61 180.016C179.891 173.486 173.904 169.75 166.041 168.073C158.241 166.972 150.325 169.193 144.067 173.887C138.147 178.927 134.581 185.414 133.497 193.135C133.238 196.834 133.941 200.36 134.684 203.969C134.804 204.568 134.923 205.166 135.046 205.783C135.136 206.232 135.225 206.681 135.318 207.144C109.608 215.153 77.0355 209.01 53.6082 196.707C29.8551 183.809 12.5101 162.499 4.63866 136.632C-2.93066 110.799 -0.843669 82.8919 10.5364 58.5564C10.7347 58.1309 10.933 57.7053 11.1373 57.2669C15.5431 48.0054 21.8457 39.9105 28.9052 32.5218C29.3437 32.0495 29.7821 31.5772 30.2339 31.0905C62.7259 -2.90141 120.82 -8.02171 161.921 11.567Z" fill="white"/>
<path d="M176.121 175.082C181.697 179.108 185.887 184.433 187.257 191.27C188.105 199.154 187.432 206.121 182.705 212.701C178.39 217.835 173.129 221.789 166.31 222.526C158.132 223.095 151.311 222.1 144.861 216.652C139.466 211.488 136.583 205.996 136.287 198.486C136.188 190.54 137.973 184.429 143.552 178.57C152.281 170.216 165.788 168.623 176.121 175.082Z" fill="#F38641"/>
</svg>
