<?xml version="1.0" encoding="UTF-8"?>
<svg version="1.1" xmlns="http://www.w3.org/2000/svg" width="1500" height="1500">
<path d="M0 0 C2.31506346 1.82964693 4.03219659 3.91446638 5.6953125 6.33984375 C4.46132187 7.70861491 3.20750627 9.05953541 1.9453125 10.40234375 C0.90117188 11.53349609 0.90117188 11.53349609 -0.1640625 12.6875 C-2.3046875 14.33984375 -2.3046875 14.33984375 -4.3203125 14.2421875 C-7.19066359 12.93696879 -9.69339338 11.25055699 -12.3046875 9.49609375 C-18.10708901 6.14158038 -25.69011485 6.48144738 -32.03515625 7.98828125 C-39.58620909 10.6614225 -43.20399859 14.76867261 -47.1796875 21.52734375 C-49.45359772 29.23337281 -49.40660434 37.05962396 -45.70703125 44.30078125 C-41.13404707 50.95007858 -35.39791897 54.50732209 -27.6171875 56.08984375 C-20.5503118 56.79520046 -14.51839951 55.61915818 -8.9296875 51.15234375 C-8.02089844 50.32669922 -8.02089844 50.32669922 -7.09375 49.484375 C-5.3046875 48.33984375 -5.3046875 48.33984375 -3.3125 48.44140625 C-0.83888248 49.5482779 0.58727367 50.93711037 2.4453125 52.90234375 C3.05890625 53.54300781 3.6725 54.18367187 4.3046875 54.84375 C4.76359375 55.33746094 5.2225 55.83117187 5.6953125 56.33984375 C4.3828125 58.33984375 4.3828125 58.33984375 2.6953125 60.33984375 C1.7053125 60.33984375 0.7153125 60.33984375 -0.3046875 60.33984375 C0.3553125 60.99984375 1.0153125 61.65984375 1.6953125 62.33984375 C2.38967866 66.52218878 2.3449264 70.18183636 0.2578125 73.90234375 C-3.55107848 76.03903869 -7.0523162 76.41064014 -11.3046875 75.33984375 C-12.1090625 74.32921875 -12.9134375 73.31859375 -13.7421875 72.27734375 C-15.010625 70.82328125 -15.010625 70.82328125 -16.3046875 69.33984375 C-18.8016822 69.21452989 -21.03760578 69.61736315 -23.50390625 70.015625 C-33.07745286 71.12385982 -42.44025434 67.59003086 -50.3046875 62.33984375 C-58.87175103 54.9124942 -63.67456303 45.90711303 -64.5078125 34.578125 C-64.6976149 22.73129212 -61.83278704 13.42075325 -53.8046875 4.58984375 C-52.9796875 3.84734375 -52.1546875 3.10484375 -51.3046875 2.33984375 C-50.5621875 1.65921875 -49.8196875 0.97859375 -49.0546875 0.27734375 C-34.80126753 -9.7648385 -14.40182444 -9.59149846 0 0 Z M-10.3046875 57.33984375 C-10.3046875 57.66984375 -10.3046875 57.99984375 -10.3046875 58.33984375 C-7.6646875 58.33984375 -5.0246875 58.33984375 -2.3046875 58.33984375 C-2.3046875 58.00984375 -2.3046875 57.67984375 -2.3046875 57.33984375 C-4.9446875 57.33984375 -7.5846875 57.33984375 -10.3046875 57.33984375 Z " fill="black" transform="translate(536.3046875,710.66015625)"/>
<path d="M0 0 C7.87692258 8.23496452 8.75 16.66871685 8.75 27.875 C-5.77 27.875 -20.29 27.875 -35.25 27.875 C-30.83151916 35.77833563 -30.83151916 35.77833563 -23.25 38.875 C-16.81697638 39.67798735 -11.85792085 39.34657005 -6.25 35.875 C-4.59089996 35.18971955 -2.92667436 34.51608137 -1.25 33.875 C-0.21409662 34.94393218 0.80333942 36.03078488 1.8125 37.125 C2.38097656 37.72828125 2.94945312 38.3315625 3.53515625 38.953125 C4.75 40.875 4.75 40.875 4.62890625 42.9453125 C3.59722546 45.210425 2.6596353 46.0857916 0.625 47.5 C0.06554687 47.90476562 -0.49390625 48.30953125 -1.0703125 48.7265625 C-9.54135602 53.18980048 -20.30589684 53.18724234 -29.5234375 51.15234375 C-38.44096352 48.13504385 -44.02375027 43.34433711 -48.25 34.875 C-50.9434978 27.24056357 -50.62584313 15.59075956 -47.25 8.25 C-43.47313167 2.00486842 -37.84827887 -3.44720373 -30.77734375 -5.6875 C-19.18985557 -7.69337121 -9.83567448 -6.43101793 0 0 Z M-32.6875 10.25 C-34.58482721 13.10600612 -34.58482721 13.10600612 -35.25 17.875 C-25.35 17.875 -15.45 17.875 -5.25 17.875 C-6.25705496 12.83972522 -6.69869283 11.33524801 -10.25 7.875 C-18.11782968 3.81991735 -26.13304477 3.86360772 -32.6875 10.25 Z " fill="black" transform="translate(595.25,728.125)"/>
<path d="M0 0 C2.64 0 5.28 0 8 0 C8.33 2.64 8.66 5.28 9 8 C9.43570313 7.59007812 9.87140625 7.18015625 10.3203125 6.7578125 C10.91585937 6.21898437 11.51140625 5.68015625 12.125 5.125 C12.70507812 4.59132813 13.28515625 4.05765625 13.8828125 3.5078125 C20.44523865 -1.16579727 28.31152338 -0.54665774 36 0 C42.60371757 1.17923528 47.58681519 5.06819259 52 10 C57.11096935 17.89475381 57.75831687 25.7293093 57 35 C55.2152468 42.38377894 51.50433659 49.1478332 44.9765625 53.28125 C37.30236998 57.27525354 29.19614847 58.30716089 20.6484375 56.50390625 C15.60304691 54.77990213 13.4651957 52.72099641 9 49 C8.67 58.24 8.34 67.48 8 77 C5.36 77 2.72 77 0 77 C0 51.59 0 26.18 0 0 Z M12 15 C8.30643271 20.47666874 7.27335303 26.95802624 8.4375 33.43359375 C10.31238556 39.75067975 13.19675213 43.94884302 18.5625 47.875 C24.78481015 49.91139241 31.24259523 49.95255801 37.4375 47.8125 C42.36523681 44.32702762 46.0387684 40.78047207 48 35 C48.82319463 27.3101575 48.79439851 20.3506131 44 14 C39.80055944 9.68390832 34.40436957 7.51065544 28.5 6.625 C21.81656694 7.62751496 16.75782989 10.24217011 12 15 Z " fill="black" transform="translate(815,723)"/>
<path d="M0 0 C1.91669281 1.86206024 2.4528649 2.94094773 2.64453125 5.59765625 C0.70703125 7.84765625 0.70703125 7.84765625 -1.35546875 9.59765625 C-3.50052391 8.53255958 -5.63461512 7.45195546 -7.7578125 6.34375 C-8.59441406 5.91191406 -9.43101562 5.48007812 -10.29296875 5.03515625 C-11.12699219 4.60074219 -11.96101562 4.16632812 -12.8203125 3.71875 C-20.39864927 0.36746702 -28.20633263 1.0220967 -35.8984375 3.5625 C-44.26560262 7.08761726 -48.65458292 12.93911023 -52.46484375 20.921875 C-54.68540471 27.59329718 -54.44014661 35.95128247 -51.79296875 42.47265625 C-47.37660168 50.79402158 -41.52639812 56.36334563 -32.5 59.17578125 C-23.71527225 60.90392441 -15.15758358 60.03033569 -7.35546875 55.59765625 C-4.80484209 53.55935374 -4.80484209 53.55935374 -3.35546875 51.59765625 C-0.88746828 52.7493898 0.6923669 53.6454919 2.64453125 55.59765625 C2.4334932 58.14555461 1.89998916 59.32485655 0.1484375 61.1953125 C-9.86185992 68.74835381 -20.18116772 69.48936497 -32.35546875 68.59765625 C-42.40475904 66.9919108 -50.43497035 61.51746522 -56.8515625 53.74609375 C-63.31599326 44.51119266 -64.15808892 34.61332723 -63.35546875 23.59765625 C-61.49914294 13.8194305 -56.83950321 5.96457258 -49.03515625 -0.25 C-33.95550584 -10.11723105 -14.88036247 -10.05429896 0 0 Z " fill="black" transform="translate(737.35546875,711.40234375)"/>
<path d="M0 0 C5.57286385 3.51840852 8.44178531 7.72458933 9.9286499 14.13134766 C10.58786291 17.98453104 10.55739588 21.78816608 10.5078125 25.6875 C10.5049826 26.54182617 10.50215271 27.39615234 10.49923706 28.27636719 C10.48813879 30.97606053 10.46305427 33.67540877 10.4375 36.375 C10.42745679 38.21744309 10.4183333 40.05989143 10.41015625 41.90234375 C10.3882335 46.39335994 10.35377646 50.88412168 10.3125 55.375 C7.6725 55.375 5.0325 55.375 2.3125 55.375 C1.8175 51.91 1.8175 51.91 1.3125 48.375 C0.8175 48.973125 0.3225 49.57125 -0.1875 50.1875 C-6.03070309 55.3003027 -12.29136368 55.88841739 -19.7890625 55.65234375 C-25.97046687 55.06086166 -29.94617313 53.54777804 -34.125 48.875 C-37.60297749 44.55358927 -38.13948269 40.8891888 -37.6875 35.375 C-36.55512849 31.50906925 -35.12851313 28.42191559 -31.81640625 26.015625 C-26.47577523 23.22920882 -21.4015206 22.24216947 -15.38671875 22.27734375 C-14.41025391 22.28056641 -13.43378906 22.28378906 -12.42773438 22.28710938 C-11.42033203 22.29548828 -10.41292969 22.30386719 -9.375 22.3125 C-8.34826172 22.31701172 -7.32152344 22.32152344 -6.26367188 22.32617188 C-3.73822118 22.33791816 -1.21289095 22.35434435 1.3125 22.375 C1.02313296 20.7590542 0.72448158 19.14476894 0.421875 17.53125 C0.25655273 16.63212891 0.09123047 15.73300781 -0.07910156 14.80664062 C-0.88396457 11.58977244 -1.93238298 10.21174468 -4.6875 8.375 C-10.16821696 5.56780351 -15.81201621 6.1832352 -21.6875 7.375 C-23.90066056 8.28456848 -25.89011884 9.29494793 -27.93359375 10.53515625 C-29.6875 11.375 -29.6875 11.375 -33.6875 11.375 C-34.3475 9.395 -35.0075 7.415 -35.6875 5.375 C-34.50759775 4.57205353 -33.31804311 3.78328826 -32.125 3 C-31.46371094 2.55914063 -30.80242188 2.11828125 -30.12109375 1.6640625 C-21.92764124 -2.67596853 -8.66408257 -3.96828209 0 0 Z M-26.6875 32.375 C-29.18781654 36.12547482 -29.22353554 37.93356266 -28.6875 42.375 C-26.14612841 45.53454305 -24.54127341 47.09040886 -20.6875 48.375 C-13.87996867 49.11258332 -8.28456846 48.51476722 -2.6875 44.375 C0.62989296 40.80880257 1.50979867 38.40963499 1.40625 33.66796875 C1.39271484 32.86254639 1.37917969 32.05712402 1.36523438 31.22729492 C1.34783203 30.6160376 1.33042969 30.00478027 1.3125 29.375 C-2.41651814 29.28763264 -6.14527165 29.23448518 -9.875 29.1875 C-10.93009766 29.16236328 -11.98519531 29.13722656 -13.07226562 29.11132812 C-14.09384766 29.10166016 -15.11542969 29.09199219 -16.16796875 29.08203125 C-17.10535889 29.0663208 -18.04274902 29.05061035 -19.00854492 29.03442383 C-22.24537288 29.44592251 -24.0671095 30.4566351 -26.6875 32.375 Z " fill="black" transform="translate(990.6875,724.625)"/>
<path d="M0 0 C5.57286385 3.51840852 8.44178531 7.72458933 9.9286499 14.13134766 C10.58786291 17.98453104 10.55739588 21.78816608 10.5078125 25.6875 C10.5049826 26.54182617 10.50215271 27.39615234 10.49923706 28.27636719 C10.48813879 30.97606053 10.46305427 33.67540877 10.4375 36.375 C10.42745679 38.21744309 10.4183333 40.05989143 10.41015625 41.90234375 C10.3882335 46.39335994 10.35377646 50.88412168 10.3125 55.375 C7.6725 55.375 5.0325 55.375 2.3125 55.375 C1.8175 51.91 1.8175 51.91 1.3125 48.375 C0.8175 48.973125 0.3225 49.57125 -0.1875 50.1875 C-6.03070309 55.3003027 -12.29136368 55.88841739 -19.7890625 55.65234375 C-25.97046687 55.06086166 -29.94617313 53.54777804 -34.125 48.875 C-37.60297749 44.55358927 -38.13948269 40.8891888 -37.6875 35.375 C-36.55512849 31.50906925 -35.12851313 28.42191559 -31.81640625 26.015625 C-26.47577523 23.22920882 -21.4015206 22.24216947 -15.38671875 22.27734375 C-14.41025391 22.28056641 -13.43378906 22.28378906 -12.42773438 22.28710938 C-11.42033203 22.29548828 -10.41292969 22.30386719 -9.375 22.3125 C-8.34826172 22.31701172 -7.32152344 22.32152344 -6.26367188 22.32617188 C-3.73822118 22.33791816 -1.21289095 22.35434435 1.3125 22.375 C1.02313296 20.7590542 0.72448158 19.14476894 0.421875 17.53125 C0.25655273 16.63212891 0.09123047 15.73300781 -0.07910156 14.80664062 C-0.88396457 11.58977244 -1.93238298 10.21174468 -4.6875 8.375 C-10.16821696 5.56780351 -15.81201621 6.1832352 -21.6875 7.375 C-23.90066056 8.28456848 -25.89011884 9.29494793 -27.93359375 10.53515625 C-29.6875 11.375 -29.6875 11.375 -33.6875 11.375 C-34.3475 9.395 -35.0075 7.415 -35.6875 5.375 C-34.50759775 4.57205353 -33.31804311 3.78328826 -32.125 3 C-31.46371094 2.55914063 -30.80242188 2.11828125 -30.12109375 1.6640625 C-21.92764124 -2.67596853 -8.66408257 -3.96828209 0 0 Z M-26.6875 32.375 C-29.18781654 36.12547482 -29.22353554 37.93356266 -28.6875 42.375 C-26.14612841 45.53454305 -24.54127341 47.09040886 -20.6875 48.375 C-13.87996867 49.11258332 -8.28456846 48.51476722 -2.6875 44.375 C0.62989296 40.80880257 1.50979867 38.40963499 1.40625 33.66796875 C1.39271484 32.86254639 1.37917969 32.05712402 1.36523438 31.22729492 C1.34783203 30.6160376 1.33042969 30.00478027 1.3125 29.375 C-2.41651814 29.28763264 -6.14527165 29.23448518 -9.875 29.1875 C-10.93009766 29.16236328 -11.98519531 29.13722656 -13.07226562 29.11132812 C-14.09384766 29.10166016 -15.11542969 29.09199219 -16.16796875 29.08203125 C-17.10535889 29.0663208 -18.04274902 29.05061035 -19.00854492 29.03442383 C-22.24537288 29.44592251 -24.0671095 30.4566351 -26.6875 32.375 Z " fill="black" transform="translate(785.6875,724.625)"/>
<path d="M0 0 C4.62 0 9.24 0 14 0 C14 26.4 14 52.8 14 80 C9.38 80 4.76 80 0 80 C0 53.6 0 27.2 0 0 Z " fill="black" transform="translate(646,700)"/>
<path d="M0 0 C4.62 0 9.24 0 14 0 C14 26.4 14 52.8 14 80 C9.38 80 4.76 80 0 80 C0 53.6 0 27.2 0 0 Z " fill="black" transform="translate(616,700)"/>
<path d="M0 0 C2.97 0 5.94 0 9 0 C9 3.96 9 7.92 9 12 C14.28 12 19.56 12 25 12 C25 14.64 25 17.28 25 20 C19.72 20 14.44 20 9 20 C9.07403144 25.05456011 9.15688304 30.10735995 9.26245117 35.16113281 C9.29567681 36.87978965 9.32371616 38.59855499 9.34643555 40.31738281 C9.38002561 42.79018323 9.43234178 45.26199156 9.48828125 47.734375 C9.49467117 48.50118591 9.5010611 49.26799683 9.50764465 50.05804443 C9.59580035 53.26663367 9.7931941 55.6235005 11.35229492 58.46191406 C13.78906677 60.73657144 15.71456959 60.86858278 19 61 C21.6569191 60.12085312 21.6569191 60.12085312 24 59 C24.99 59 25.98 59 27 59 C28.4606285 61.64738916 29 62.89448334 29 66 C23.0032397 69.19827216 17.75251015 69.73441198 11 69 C5.74929784 67.28158838 3.68078921 64.76584749 1 60 C-0.27385127 56.1784462 -0.12353188 52.5931553 -0.09765625 48.61328125 C-0.0962413 47.79627243 -0.09482635 46.97926361 -0.09336853 46.13749695 C-0.08777294 43.52912732 -0.07522129 40.92084366 -0.0625 38.3125 C-0.05748443 36.54362103 -0.05292162 34.77474072 -0.04882812 33.00585938 C-0.03780496 28.67053981 -0.02054338 24.33528448 0 20 C-3.3 20 -6.6 20 -10 20 C-10 17.36 -10 14.72 -10 12 C-6.7 12 -3.4 12 0 12 C0 8.04 0 4.08 0 0 Z " fill="black" transform="translate(916,711)"/>
<path d="M0 0 C2.64 0 5.28 0 8 0 C8 26.4 8 52.8 8 80 C5.36 80 2.72 80 0 80 C0 53.6 0 27.2 0 0 Z " fill="black" transform="translate(1020,700)"/>
<path d="M0 0 C2.64 0 5.28 0 8 0 C8 18.81 8 37.62 8 57 C5.36 57 2.72 57 0 57 C0 38.19 0 19.38 0 0 Z " fill="black" transform="translate(887,723)"/>
<path d="M0 0 C2.5625 1.4375 2.5625 1.4375 4 4 C4.74831272 8.29295189 4.7145847 11.72617511 2.5625 15.5625 C-1.27382489 17.7145847 -4.70704811 17.74831272 -9 17 C-11.5625 15.5625 -11.5625 15.5625 -13 13 C-13.74831272 8.70704811 -13.7145847 5.27382489 -11.5625 1.4375 C-7.72617511 -0.7145847 -4.29295189 -0.74831272 0 0 Z " fill="#FD843A" transform="translate(534,769)"/>
<path d="M0 0 C2.3125 1.5 2.3125 1.5 3.8125 3.8125 C4.3125 6.5 4.3125 6.5 3.3125 9.3125 C1.3125 11.5 1.3125 11.5 -1.6875 11.9375 C-4.6875 11.5 -4.6875 11.5 -7.6875 9.5 C-8.1875 6.0625 -8.1875 6.0625 -7.6875 2.5 C-4.96621364 -0.06578428 -3.70043377 -0.68845279 0 0 Z " fill="black" transform="translate(893.6875,700.5)"/>
</svg>
