<svg width="1440" height="611" viewBox="0 0 1440 611" fill="none" xmlns="http://www.w3.org/2000/svg">
<path fill-rule="evenodd" clip-rule="evenodd" d="M994 40H1243V41H1242V173H1442V174H1242V371.732L1442 174L1442.7 174.711L1242 373.138V610H1241V374.127L1001.7 610.711L1001 610L1241 372.721V41.9629L994 280.036V280.565L994.717 281.303L994 282V537.586L994.707 538.293L994 539V610H993V538L726 271L726.707 270.293L993 536.586V281L992.306 280.28L992.316 280.269L855.479 139.521L712 283V610H711V284L448 547V610H447L192 355V610H191V354L144.189 307.189L2.70215 446.712L2 446L143.482 306.482L0 163L0.707031 162.293L144.194 305.78L146 304L146.702 304.712L144.901 306.487L191 352.586V138H0V137H191V41H192V353.586L275.207 436.793L447 265V222.289L192 41L192.579 40.1846L447 221.062V40H192V39H447V0H994V40ZM275.914 437.5L447 608.586V548L417 578L416.293 577.293L447 546.586V266.414L275.914 437.5ZM448 265.414V545.586L711 282.586V2.41406L448 265.414ZM712 1.41406V281.586L854.781 138.804L854 138L854.717 137.303L855.488 138.097L992.586 1H712.414L712 1.41406ZM856.186 138.813L993 279.536V2L856.186 138.813ZM994 278.646L1240.56 41H994V278.646ZM448 221.772L448.579 222.185L448 223V264L711 1H448V221.772Z" fill="#E5E5E5"/>
</svg>
