<svg width="160" height="160" viewBox="0 0 160 160" fill="none" xmlns="http://www.w3.org/2000/svg">
<path fill-rule="evenodd" clip-rule="evenodd" d="M109.939 0C137.045 0 159.018 22.2467 159.018 49.6894C159.018 60.8105 155.408 71.0769 149.312 79.3566C156 87.848 160 98.6056 160 110.311C160 137.753 138.026 160 110.92 160C99.4258 160 88.8552 155.998 80.4908 149.297C72.1264 155.998 61.5558 160 50.0614 160C22.9554 160 0.981595 137.753 0.981595 110.311C0.981595 99.1895 4.59085 88.9222 10.6873 80.6425C3.99959 72.1512 0 61.3939 0 49.6894C0 22.2467 21.9738 0 49.0798 0C60.574 0 71.1449 4.0011 79.5092 10.7017C87.8736 4.0011 98.4444 0 109.939 0ZM148.699 80.1698C139.719 91.8579 125.697 99.3789 109.939 99.3789C105.666 99.3789 101.52 98.8252 97.5681 97.7863C98.5943 101.787 99.1411 105.984 99.1411 110.311C99.1411 125.75 92.1853 139.544 81.274 148.658C89.4433 155.141 99.7357 159.006 110.92 159.006C137.484 159.006 159.018 137.204 159.018 110.311C159.018 98.9295 155.161 88.4607 148.699 80.1698ZM11.3267 81.4392C5.4422 89.5179 1.96319 99.5026 1.96319 110.311C1.96319 137.204 23.4975 159.006 50.0614 159.006C61.2456 159.006 71.5374 155.14 79.7067 148.658C68.7956 139.544 61.8405 125.75 61.8405 110.311C61.8405 105.764 62.4429 101.36 63.5727 97.1759C58.9918 98.6073 54.1248 99.3789 49.0798 99.3789C33.899 99.3789 20.3295 92.3998 11.3267 81.4392ZM79.5092 88.6762C75.1177 92.1943 70.1186 94.9687 64.6961 96.81C63.4768 101.097 62.8221 105.626 62.8221 110.311C62.8221 125.516 69.7068 139.091 80.4908 148.021C91.2748 139.091 98.1595 125.516 98.1595 110.311C98.1595 105.872 97.5724 101.572 96.4734 97.4854C90.2194 95.6829 84.4757 92.655 79.5092 88.6762ZM50.0614 61.6149C34.5343 61.6149 20.7276 69.0653 11.9335 80.626C20.7551 91.4706 34.1199 98.3851 49.0798 98.3851C54.251 98.3851 59.2303 97.555 63.8986 96.0258C65.5586 90.417 68.1717 85.2255 71.5462 80.6425C67.5594 75.5806 64.5258 69.7147 62.7281 63.321C58.6923 62.2085 54.4453 61.6149 50.0614 61.6149ZM110.92 61.6149C105.749 61.6149 100.769 62.4439 96.1005 63.9732C94.4405 69.5822 91.8274 74.7734 88.4528 79.3566C92.4398 84.4184 95.4731 90.2843 97.2709 96.678C101.307 97.7907 105.554 98.3851 109.939 98.3851C125.466 98.3851 139.271 90.9338 148.066 79.3731C139.244 68.5291 125.88 61.6149 110.92 61.6149ZM87.8403 80.1698C85.6164 83.0644 83.0847 85.7044 80.2924 88.0367C84.9609 91.7414 90.3237 94.5879 96.1493 96.35C94.3934 90.3994 91.5473 84.9258 87.8403 80.1698ZM72.1856 81.4392C69.0862 85.6944 66.6545 90.4781 65.047 95.6328C70.0336 93.8564 74.6445 91.2747 78.7251 88.0367C76.3464 86.0499 74.1571 83.8395 72.1856 81.4392ZM80.4908 72.599C77.6316 74.9666 75.0476 77.6613 72.7924 80.626C74.8058 83.1012 77.0575 85.3698 79.5092 87.4C82.3683 85.0325 84.9515 82.3377 87.2067 79.3731C85.1933 76.8981 82.9424 74.629 80.4908 72.599ZM49.0798 0.993789C22.5159 0.993789 0.981595 22.7956 0.981595 49.6894C0.981595 61.0701 4.8382 71.5385 11.2998 79.8292C20.2798 68.1412 34.3027 60.6211 50.0614 60.6211C54.3341 60.6211 58.4793 61.174 62.431 62.2127C61.405 58.2119 60.8589 54.0152 60.8589 49.6894C60.8589 34.2501 67.8138 20.455 78.7251 11.3412C70.5559 4.85902 60.2638 0.993789 49.0798 0.993789ZM63.8497 63.6491C65.6055 69.5996 68.4519 75.0731 72.1587 79.8292C74.3826 76.9347 76.9144 74.2946 79.7067 71.9623C75.038 68.2578 69.6754 65.411 63.8497 63.6491ZM94.9521 64.3663C89.9656 66.1426 85.3544 68.7244 81.274 71.9623C83.6527 73.9491 85.8419 76.1596 87.8135 78.5598C90.9129 74.3045 93.3445 69.5211 94.9521 64.3663ZM109.939 0.993789C98.7543 0.993789 88.4616 4.85874 80.2924 11.3412C91.204 20.455 98.1595 34.2498 98.1595 49.6894C98.1595 54.2358 97.556 58.6395 96.4264 62.8232C101.007 61.3917 105.875 60.6211 110.92 60.6211C126.101 60.6211 139.67 67.5999 148.672 78.5598C154.557 70.4812 158.037 60.4973 158.037 49.6894C158.037 22.7956 136.503 0.993789 109.939 0.993789ZM79.5092 11.9779C68.725 20.9078 61.8405 34.4842 61.8405 49.6894C61.8405 54.1279 62.4268 58.4277 63.5257 62.5136C69.7799 64.316 75.5241 67.344 80.4908 71.3228C84.882 67.805 89.8809 65.0302 95.3029 63.1891C96.5222 58.9023 97.1779 54.3734 97.1779 49.6894C97.1779 34.4842 90.2934 20.9078 79.5092 11.9779Z" fill="black"/>
</svg>
