<svg width="160" height="160" viewBox="0 0 160 160" fill="none" xmlns="http://www.w3.org/2000/svg">
<path fill-rule="evenodd" clip-rule="evenodd" d="M160 80L80 160L0 80L80 0L160 80ZM1.41406 80L80 158.586L122.586 116H38V44H79.3359L80.5 43L81.6641 44H122.586L80 1.41406L1.41406 80ZM123 115.586L158.586 80L123 44.4141V115.586ZM39 115H79.3359L39 80.3584V115ZM81.6641 115H122V80.3584L81.6641 115ZM39.5342 79.5L80.5 114.682L98.7598 99H63V61H99V98.793L121.465 79.5L81.2949 45H79.7051L39.5342 79.5ZM64 98H98V62H64V98ZM39 78.6406L78.1709 45H39V78.6406ZM122 78.6406V45H82.8291L122 78.6406Z" fill="black"/>
</svg>
