<svg width="160" height="160" viewBox="0 0 160 160" fill="none" xmlns="http://www.w3.org/2000/svg">
<path fill-rule="evenodd" clip-rule="evenodd" d="M152.304 54.5133L133.965 63.0711L160 81.4159L145.494 88.1858L160 98.4071L138.241 108.562L160 123.894L82.6329 160L7.6962 101.239L28.7722 92.2788L7.6962 75.7522L21.7468 69.7788L7.6962 58.7611L24.9525 51.4242L0 31.8584L74.9367 0L152.304 54.5133ZM10.1835 101.637L82.7017 158.502L157.445 123.62L136.938 109.169L82.6329 134.513L29.9747 93.2218L10.1835 101.637ZM31.2587 92.6756L82.7017 133.016L135.686 108.287L122.43 98.9477L82.6329 117.522L44.0261 87.2483L31.2587 92.6756ZM45.3093 86.7035L82.7017 116.025L121.18 98.0669L96.3956 80.6043L74.9367 90.6195L61.2824 79.9129L45.3093 86.7035ZM123.734 98.3407L136.989 107.68L157.445 98.1333L144.19 88.7929L123.734 98.3407ZM97.6986 79.9958L122.483 97.4585L142.938 87.9107L118.155 70.448L97.6986 79.9958ZM10.1835 76.1504L30.0554 91.7326L42.8228 86.3053L22.9502 70.7218L10.1835 76.1504ZM62.5657 79.3667L75.0055 89.122L95.1448 79.7221L82.5704 70.8628L62.5657 79.3667ZM119.458 69.841L144.241 87.3036L157.445 81.1421L132.661 63.6795L119.458 69.841ZM24.2342 70.1756L44.106 85.7591L60.0783 78.9685L40.2065 63.3863L24.2342 70.1756ZM41.4905 62.8402L61.3616 78.4223L82.6329 69.3805L96.4478 79.1137L116.903 69.5672L82.5704 45.3761L41.4905 62.8402ZM10.1835 59.1593L23.0301 69.2326L39.0024 62.4419L26.1559 52.3686L10.1835 59.1593ZM27.4391 51.8225L40.2864 61.8957L82.6329 43.8938L118.206 68.9588L131.411 62.7973L82.5704 28.385L27.4391 51.8225ZM2.48734 32.2566L26.2358 50.878L82.6329 26.9027L132.714 62.1889L149.749 54.2395L74.8742 1.4823L2.48734 32.2566Z" fill="black"/>
</svg>
